<svg
  version="1.1"
  id="upc-logo-svg"
  xmlns="http://www.w3.org/2000/svg"
  x="0px"
  y="0px"
  viewBox="0 0 446.457 170.079"
  xml:space="preserve"
  aria-hidden="true"
>
  <title>Université Paris Cité</title>
  <desc>Logo de l'Université Paris Cité</desc>
  <g style="fill: #8a1438">
    <path
      d="M 122.10547,50.730469 H 140.07812 V 52.359375 H 134.49609 V 85.753906 C 134.49609,95.359375 132.80859,105.58203 128.70312,112.22266 L 125.3125,107.58594 C 128.68359,99.808594 127.70703,90.050781 127.77344,85.753906 V 52.359375 H 122.10547 Z M 122.10547,50.730469"
    />
    <path
      d="M 93.628906,55.03125 H 94.324219 C 96.191406,73.71875 100.05859,89.8125 113.21875,108.21875 121.40625,119.67188 132.41016,135.96875 132.41016,135.96875 H 143.84766 C 143.84766,135.96875 127.32031,115.05859 120.98047,105.58203 106.01172,83.214844 100.85938,65.140625 100.01953,28.332031 V 27.089844 H 90.398438 V 28.332031 C 90.703125,58.816406 87.246094,72.09375 82.609375,83.457031 79.410156,91.289063 73.101563,101.29688 65.421875,109.04297 65.429688,110.41016 66.101563,113.46875 66.691406,115.46484 72.007813,108.54688 80.855469,104.73047 88.621094,104.73047 94.273438,104.73047 99.464844,106.19141 104.10547,110.41406 105.94922,112.09375 109.13672,115.88281 114.44531,124.65234 108.76172,130.62891 100.81641,134.625 91.351563,134.625 78.105469,134.625 72.066406,129.69922 67.5625,123.29688 63.449219,117.44141 61.328125,108.73828 61.328125,95.234375 V 52.359375 H 66.421875 V 50.726563 H 29.613281 V 52.359375 H 34.890625 V 83.730469 C 34.890625,101.55078 38.742188,111.47656 44.992188,120.08594 51.367188,128.86719 64.652344,138.70312 89.394531,138.70312 102.46484,138.70312 111.45703,132.99219 116.42969,127.96484 117.75781,130.23828 119.41797,133.12109 120.97266,135.96875 H 129.58594 C 129.58594,135.96875 123.83594,127.28906 115.25391,114.91797 106.125,101.76172 97.332031,100.04297 88.632813,100.04297 84.023438,100.04297 78.585938,102.1875 75.449219,104.41016 L 75.1875,104.14844 C 80.90625,97.609375 84.574219,89.816406 86.863281,83.980469 89.277344,77.824219 93.175781,64.878906 93.628906,55.03125"
    />
  </g>
  <g style="fill: #000000">
    <path
      d="M 196.47266,89.367188 C 206.64453,89.367188 212.25,84.5625 212.25,75.839844 V 50.664063 H 206.55469 V 75.734375 C 206.55469,81.683594 203.10547,84.824219 196.57812,84.824219 190.05078,84.824219 186.60156,81.683594 186.60156,75.734375 V 50.664063 H 180.48437 V 75.839844 C 180.48437,84.5625 186.16016,89.367188 196.47266,89.367188"
    />
    <path
      d="M 243.41406,88.84375 V 67.65625 C 243.41406,63.660156 240.44531,61.371094 235.26953,61.371094 230.32031,61.371094 226.24219,63.261719 224.39062,65.101563 V 61.726563 L 219.01172,61.957031 V 88.84375 H 224.65234 V 68.734375 C 226.35937,66.429688 230.07031,65.226563 232.88281,65.226563 236.17578,65.226563 237.77344,66.382813 237.77344,68.757813 V 88.84375 Z M 243.41406,88.84375"
    />
    <path
      d="M 249.75391,57.777344 H 255.33984 V 52.605469 H 249.75391 Z M 249.75391,57.777344"
    />
    <path
      d="M 249.75391,88.84375 H 255.33984 V 61.785156 L 249.75391,61.898438 Z M 249.75391,88.84375"
    />
    <path
      d="M 274.82031,88.84375 285.21484,62.234375 285.34766,61.894531 H 280.46094 L 272.44922,83.402344 264.65234,62.058594 264.59375,61.894531 H 258.65234 L 268.96484,88.84375 Z M 274.82031,88.84375"
    />
    <path
      d="M 291.95703,71.917969 C 293.08984,65.511719 296.89453,64.546875 299.08203,64.546875 304.77734,64.546875 305.63672,69.507813 305.71484,71.917969 Z M 310.61719,86.296875 V 82.113281 L 310.19141,82.535156 C 308.64844,84.066406 305.11719,85.613281 301.35937,85.613281 294.94922,85.613281 291.69922,82.203125 291.69922,75.472656 V 75.199219 H 311.01953 L 311.04297,74.972656 C 311.09375,74.4375 311.09375,73.320313 311.09375,72.902344 311.09375,65.574219 306.71484,61.371094 299.08203,61.371094 292.60156,61.371094 286.05859,65.714844 286.05859,75.421875 286.05859,84.023438 291.41406,89.367188 300.03516,89.367188 306.16797,89.367188 309.41406,87.273438 310.52344,86.375 Z M 310.61719,86.296875"
    />
    <path
      d="M 321.64453,70.066406 C 322.90625,67.082031 325.89844,66.015625 328.28125,66.015625 329.66797,66.015625 330.98047,66.253906 331.54297,66.605469 L 331.92578,66.847656 V 62.292969 L 331.83984,62.21875 C 331.23828,61.691406 330.16406,61.421875 328.65234,61.421875 325.88672,61.421875 323.10937,63.109375 321.32422,65.84375 V 61.726563 L 316.00391,61.957031 V 88.84375 H 321.64453 Z M 321.64453,70.066406"
    />
    <path
      d="M 344.84375,73.085938 C 341.41406,71.953125 339.34375,71.269531 339.34375,68.597656 339.34375,66.390625 341.40234,65.019531 344.71094,65.019531 347.30078,65.019531 350.10937,65.949219 351.74219,66.875 L 352.11719,67.085938 V 63.265625 L 351.99609,63.191406 C 350.64844,62.351563 347.78125,61.371094 344.12891,61.371094 338.05859,61.371094 334.28516,64.359375 334.28516,69.175781 334.28516,73.859375 337.93359,75.738281 341.87109,77.074219 L 342.64844,77.347656 C 345.94141,78.515625 348.11719,79.285156 348.11719,81.980469 348.11719,84.566406 346.22266,85.824219 342.32812,85.824219 339.21484,85.824219 336.00781,84.402344 334.21484,82.992188 L 333.80859,82.671875 V 86.710938 L 333.89453,86.785156 C 335.35156,88.066406 338.89844,89.367188 342.85547,89.367188 349.55078,89.367188 353.38672,86.503906 353.38672,81.507813 353.38672,76.332031 349.34766,74.570313 344.84375,73.085938"
    />
    <path
      d="M 364.25391,52.605469 H 358.66406 V 57.777344 H 364.25391 Z M 364.25391,52.605469"
    />
    <path
      d="M 364.25391,61.785156 358.66406,61.898438 V 88.84375 H 364.25391 Z M 364.25391,61.785156"
    />
    <path
      d="M 379.84766,89.367188 C 382.9375,89.367188 385.57812,88.410156 386.58984,87.460938 L 386.67187,87.386719 V 83.59375 L 386.25781,83.941406 C 385.20312,84.828125 383.4375,85.402344 381.75781,85.402344 379.25,85.402344 378.08594,84.382813 378.08594,82.191406 V 65.542969 H 386.03516 V 61.894531 H 378.08594 V 54.679688 L 372.60547,57.046875 V 61.875 L 368.78906,62.453125 V 65.542969 H 372.55078 V 83.238281 C 372.55078,87.191406 375.14453,89.367188 379.84766,89.367188"
    />
    <path
      d="M 407.73437,49.351563 H 401.94922 L 398.22266,57.566406 H 401.91797 Z M 407.73437,49.351563"
    />
    <path
      d="M 401.26172,64.546875 C 406.95703,64.546875 407.81641,69.507813 407.89453,71.917969 H 394.13672 C 395.27344,65.511719 399.07422,64.546875 401.26172,64.546875 M 401.26172,61.371094 C 394.78125,61.371094 388.23828,65.714844 388.23828,75.421875 388.23828,84.023438 393.59375,89.367188 402.21484,89.367188 408.35156,89.367188 411.59375,87.273438 412.70312,86.371094 L 412.79687,86.296875 V 82.113281 L 412.37109,82.535156 C 410.82812,84.066406 407.30078,85.613281 403.53906,85.613281 397.12891,85.613281 393.87891,82.203125 393.87891,75.472656 V 75.199219 H 413.19922 L 413.22266,74.972656 C 413.27734,74.4375 413.27734,73.320313 413.27734,72.902344 413.27734,65.574219 408.89844,61.371094 401.26172,61.371094"
    />
    <path
      d="M 186.60156,101.74219 H 192.71094 C 198.03516,101.74219 200.51562,104.11328 200.51562,109.20703 200.51562,114.16016 197.89062,116.66797 192.71094,116.66797 H 186.60156 Z M 194.08594,97.777344 H 180.48437 V 135.95703 H 186.60156 V 120.68359 H 193.875 C 201.83984,120.68359 206.78906,116.28516 206.78906,109.20703 206.78906,102.05078 202.03906,97.777344 194.08594,97.777344"
    />
    <path
      d="M 218.57422,133.14844 C 216.86719,133.14844 214.00391,132.60547 214.00391,128.98828 214.00391,125.49609 216.70703,124.58203 219.09375,123.76953 219.30469,123.69922 219.51172,123.62891 219.71875,123.55859 221.86328,122.79688 223.45703,121.94531 224.26172,121.13281 V 129.96875 C 223.04297,131.98828 220.97656,133.14844 218.57422,133.14844 M 231.76953,133.04297 C 230.46094,133.04297 229.79297,132.34766 229.79297,130.98437 V 114.19141 C 229.79297,110.35156 226.53906,108.48438 219.84766,108.48438 215.59766,108.48438 212.03906,109.70703 210.52734,110.84375 L 210.42969,110.91797 V 114.46484 L 210.80469,114.25 C 213.05469,112.96875 215.66797,112.28906 218.36328,112.28906 222.55078,112.28906 224.26172,113.09766 224.26172,115.08203 V 116.55078 C 224.26172,118.59375 221.95703,119.46094 217.54297,120.93359 L 217.25391,121.02344 C 213.06641,122.33203 208.73437,123.6875 208.73437,129.30469 208.73437,133.59766 212.05078,136.48047 216.98437,136.48047 221.58203,136.48047 223.875,134.64453 225.00781,132.98437 225.41797,135.15234 227.28125,136.48047 229.96875,136.48047 231.89453,136.48047 233.54687,135.94141 234.39062,135.03516 L 234.45703,134.96484 V 132.19531 L 234.07031,132.45312 C 233.64062,132.73828 232.73828,133.04297 231.76953,133.04297"
    />
    <path
      d="M 250.375,108.53516 C 247.60547,108.53516 244.82812,110.22266 243.04687,112.95703 V 108.83984 L 237.72266,109.07031 V 135.95703 H 243.36328 V 117.17969 C 244.62891,114.19531 247.61719,113.12891 250.00391,113.12891 251.39062,113.12891 252.69922,113.36719 253.26172,113.72266 L 253.64453,113.96094 V 109.40625 L 253.5625,109.33203 C 252.95703,108.80469 251.88672,108.53516 250.375,108.53516"
    />
    <path
      d="M 257.22656,104.89063 H 262.8125 V 99.71875 H 257.22656 Z M 257.22656,104.89063"
    />
    <path
      d="M 257.22656,135.95703 H 262.8125 V 108.89844 L 257.22656,109.01563 Z M 257.22656,135.95703"
    />
    <path
      d="M 279.49609,120.19922 C 276.06641,119.06641 273.99609,118.38281 273.99609,115.71484 273.99609,113.50391 276.05469,112.13281 279.36328,112.13281 281.95703,112.13281 284.76172,113.06641 286.39453,113.98828 L 286.76953,114.19922 V 110.37891 L 286.64844,110.30469 C 285.30469,109.46484 282.43359,108.48438 278.78125,108.48438 272.71094,108.48438 268.9375,111.47656 268.9375,116.28906 268.9375,120.96875 272.58594,122.85156 276.52344,124.1875 L 277.30078,124.46484 C 280.59375,125.62891 282.76953,126.39844 282.76953,129.09375 282.76953,131.67969 280.875,132.9375 276.98047,132.9375 273.86328,132.9375 270.66016,131.51562 268.86719,130.10547 L 268.46094,129.78516 V 133.82422 L 268.54687,133.89844 C 270.00391,135.17969 273.55078,136.48047 277.50781,136.48047 284.20312,136.48047 288.03906,133.61719 288.03906,128.62109 288.03906,123.44922 284,121.68359 279.49609,120.19922"
    />
    <path
      d="M 325.47266,132.14844 C 316.65234,132.14844 310.72266,126.00781 310.72266,116.86719 310.72266,107.58594 316.57422,101.58594 325.62891,101.58594 329.76953,101.58594 333.16797,102.68359 336.02344,104.94141 L 336.42578,105.26172 V 100.46875 L 336.31641,100.39453 C 334.16016,98.933594 330.9375,97.253906 325.10156,97.253906 312.74609,97.253906 304.44922,105.13672 304.44922,116.86719 304.44922,128.59766 312.53516,136.48047 324.57031,136.48047 329.75781,136.48047 333.8125,135.3125 336.96094,132.91406 L 337.0625,132.83984 V 127.88281 L 336.65234,128.21875 C 333.36719,130.90234 329.81641,132.14844 325.47266,132.14844"
    />
    <path
      d="M 343.29687,104.89063 H 348.88281 V 99.71875 H 343.29687 Z M 343.29687,104.89063"
    />
    <path
      d="M 343.29687,135.95703 H 348.88281 V 108.89844 L 343.29687,109.01563 Z M 343.29687,135.95703"
    />
    <path
      d="M 366.38672,132.51562 C 363.88281,132.51562 362.71484,131.49609 362.71484,129.30469 V 112.65625 H 370.66406 V 109.00781 H 362.71484 V 101.79297 L 357.23437,104.16406 V 108.99219 L 353.41797,109.56641 V 112.65625 H 357.17969 V 130.35156 C 357.17969,134.30469 359.77344,136.48047 364.48047,136.48047 367.5625,136.48047 370.20312,135.52344 371.22266,134.57812 L 371.30078,134.50391 V 130.70703 L 370.89062,131.05469 C 369.83203,131.94141 368.06641,132.51562 366.38672,132.51562"
    />
    <path
      d="M 386.55078,104.67969 392.36328,96.46875 H 386.57812 L 382.85547,104.67969 Z M 386.55078,104.67969"
    />
    <path
      d="M 385.89062,111.66016 C 391.58984,111.66016 392.44531,116.62109 392.52344,119.03125 H 378.76953 C 379.90234,112.625 383.70312,111.66016 385.89062,111.66016 M 385.89062,108.48438 C 379.41016,108.48438 372.87109,112.82813 372.87109,122.53516 372.87109,131.13672 378.22656,136.48047 386.84375,136.48047 392.97656,136.48047 396.22656,134.38672 397.33594,133.48437 L 397.42969,133.41016 V 129.23047 L 397.00391,129.65234 C 395.45703,131.17969 391.92969,132.72656 388.16797,132.72656 381.75781,132.72656 378.50781,129.31641 378.50781,122.58594 V 122.3125 H 397.82812 L 397.85156,122.08594 C 397.90625,121.55078 397.90625,120.43359 397.90625,120.01563 397.90625,112.6875 393.52734,108.48438 385.89062,108.48438"
    />
  </g>
</svg>
