<?xml version="1.0" encoding="UTF-8" standalone="no"?>
<!DOCTYPE svg PUBLIC "-//W3C//DTD SVG 1.1//EN" "http://www.w3.org/Graphics/SVG/1.1/DTD/svg11.dtd">
<svg width="100%" height="100%" viewBox="0 0 360 362" version="1.1" xmlns="http://www.w3.org/2000/svg" xmlns:xlink="http://www.w3.org/1999/xlink" xml:space="preserve" xmlns:serif="http://www.serif.com/" style="fill-rule:evenodd;clip-rule:evenodd;stroke-linejoin:round;stroke-miterlimit:2;">
    <g id="logo-icon" transform="matrix(0.375,0,0,0.868364,0,0)">
        <rect x="0" y="0" width="960" height="416" style="fill:none;"/>
        <clipPath id="_clip1">
            <rect x="0" y="0" width="960" height="416"/>
        </clipPath>
        <g clip-path="url(#_clip1)">
            <g transform="matrix(2.66667,0,0,1.15159,0,-63.0618)">
                <path d="M321.127,66.704L328.563,54.761L296.113,54.761L281.239,90.366L263.211,54.761L232.789,54.761L216.338,78.423L197.859,54.761L167.437,54.761L152.113,116.732L157.521,137.915L138.366,106.366L143.099,83.155L153.465,54.761L130.93,54.761L118.535,80L91.493,54.761L64.676,54.761L113.803,109.296L126.423,141.746L126.423,150.535L83.831,143.775L59.718,108.394L36.958,54.761L19.38,54.761L30.197,96.225L0,91.042L0,105.465L36.958,124.62L49.577,151.662L0,164.958L0,181.408L40.789,180.958L0,213.859L0,239.775L43.268,253.07L0,280.338L0,294.761L63.324,270.648L109.296,263.887L78.873,317.521L82.479,298.366L0,320L0,332.394L61.746,328.338L54.535,346.817L0,375.662L0,391.211L43.718,374.761L27.944,415.324L58.592,415.324L90.366,351.549L137.014,291.606L166.535,265.465L147.606,294.085L148.282,316.169L89.465,415.324L113.352,415.324L148.732,366.648L151.887,415.324L174.423,415.324L176.451,367.324L202.141,415.324L219.268,415.324L185.465,320.451L175.324,258.93L203.944,238.648L221.972,270.873L227.155,312.789L224,415.324L244.056,415.324L257.803,324.958L265.69,338.254L270.873,415.324L290.93,415.324L290.93,369.577L342.085,415.324L360.563,415.324L360.563,400.901L298.366,336.676L289.127,311.211L360.563,344.789L360.563,330.366L318.873,300.394L360.563,289.127L360.563,244.732L336,207.324L360.563,204.394L360.563,189.972L322.028,185.69L303.324,157.296L305.577,146.254L360.563,164.507L360.563,147.38L311.662,114.93L313.915,103.437L360.563,90.141L360.563,72.563L318.873,78.423L321.127,66.704L321.127,66.704ZM72.113,235.493L10.817,222.648L78.873,182.986L102.761,184.113L122.817,197.859L127.099,164.056L130.704,207.324L72.113,235.493L72.113,235.493ZM176.225,165.859L172.169,153.239L186.817,65.577L207.775,110.197L198.986,155.493L218.592,157.07L176.225,165.859ZM230.31,105.69L248.338,65.577L269.521,118.535L259.38,142.423L278.085,144.451L232.338,154.141L230.31,105.69ZM309.859,228.056L349.746,276.282L296.789,283.493L279.211,276.282L267.944,220.62L233.69,225.352L275.155,206.648L309.859,228.056Z" style="fill:rgb(200,50,0);fill-rule:nonzero;"/>
            </g>
        </g>
    </g>
</svg>
