<?xml version="1.0" encoding="UTF-8" standalone="no"?>
<!DOCTYPE svg PUBLIC "-//W3C//DTD SVG 1.1//EN" "http://www.w3.org/Graphics/SVG/1.1/DTD/svg11.dtd">
<svg width="100%" height="100%" viewBox="0 0 960 416" version="1.1" xmlns="http://www.w3.org/2000/svg" xmlns:xlink="http://www.w3.org/1999/xlink" xml:space="preserve" xmlns:serif="http://www.serif.com/" style="fill-rule:evenodd;clip-rule:evenodd;stroke-linejoin:round;stroke-miterlimit:2;">
    <g transform="matrix(1,0,0,1,-16,-488)">
        <g id="logo-baseline" transform="matrix(1,0,0,1,16,488)">
            <rect x="0" y="0" width="960" height="416" style="fill:none;"/>
            <g id="logo-text">
                <rect x="759.887" y="54.761" width="35.38" height="264.563" style="fill:rgb(239,85,20);"/>
                <path d="M927.099,54.761L927.099,295.211L886.761,54.761L823.437,54.761L823.437,319.324L856.338,319.324L856.338,78.873L896.676,319.324L960,319.324L960,54.761L927.099,54.761Z" style="fill:rgb(239,85,20);fill-rule:nonzero;"/>
                <path d="M490.511,193.987C512.127,180.663 523.268,150.516 523.268,122.141C523.268,86.761 505.915,54.761 470.535,54.761L416.451,54.761L416.451,319.324L451.831,319.324L451.831,201.014L459.244,201.014L495.549,319.324L533.183,319.324L490.511,193.987L490.511,193.987ZM467.38,84.282C481.127,84.282 487.662,102.535 487.662,122.592C487.662,146.479 478.648,171.718 462.197,171.718L451.831,171.718L451.831,84.282L467.38,84.282Z" style="fill:rgb(200,50,0);fill-rule:nonzero;"/>
                <path d="M635.042,319.324L635.042,290.028L580.732,290.028L580.732,156.62L627.155,156.62L627.155,127.099L580.732,127.099L580.732,84.282L635.042,84.282L635.042,54.761L545.352,54.761L545.352,276.958L559.775,319.324L635.042,319.324Z" style="fill:rgb(200,50,0);fill-rule:nonzero;"/>
                <path d="M736,258.254C736,246.535 733.521,235.042 727.887,222.873L696.563,152.113C690.028,137.239 687.549,125.296 687.549,115.606C687.549,93.746 701.521,84.282 725.408,84.282L734.423,84.282L734.423,54.761L725.408,54.761C672.451,54.761 650.592,80.676 650.592,115.155C650.592,128.676 654.197,144.451 660.732,159.549L692.507,230.535C696.563,240 700.169,250.592 700.169,260.732C700.169,276.958 690.93,290.028 661.183,290.028L652.62,290.028L652.62,319.324L661.183,319.324C710.31,319.324 736,295.211 736,258.254Z" style="fill:rgb(200,50,0);fill-rule:nonzero;"/>
                <path d="M580.732,35.831L604.169,35.831L644.507,0L598.986,0L580.732,35.831Z" style="fill:rgb(200,50,0);fill-rule:nonzero;"/>
            </g>
            <path id="icon" d="M321.127,66.704L328.563,54.761L296.113,54.761L281.239,90.366L263.211,54.761L232.789,54.761L216.338,78.423L197.859,54.761L167.437,54.761L152.113,116.732L157.521,137.915L138.366,106.366L143.099,83.155L153.465,54.761L130.93,54.761L118.535,80L91.493,54.761L64.676,54.761L113.803,109.296L126.423,141.746L126.423,150.535L83.831,143.775L59.718,108.394L36.958,54.761L19.38,54.761L30.197,96.225L0,91.042L0,105.465L36.958,124.62L49.577,151.662L0,164.958L0,181.408L40.789,180.958L0,213.859L0,239.775L43.268,253.07L0,280.338L0,294.761L63.324,270.648L109.296,263.887L78.873,317.521L82.479,298.366L0,320L0,332.394L61.746,328.338L54.535,346.817L0,375.662L0,391.211L43.718,374.761L27.944,415.324L58.592,415.324L90.366,351.549L137.014,291.606L166.535,265.465L147.606,294.085L148.282,316.169L89.465,415.324L113.352,415.324L148.732,366.648L151.887,415.324L174.423,415.324L176.451,367.324L202.141,415.324L219.268,415.324L185.465,320.451L175.324,258.93L203.944,238.648L221.972,270.873L227.155,312.789L224,415.324L244.056,415.324L257.803,324.958L265.69,338.254L270.873,415.324L290.93,415.324L290.93,369.577L342.085,415.324L360.563,415.324L360.563,400.901L298.366,336.676L289.127,311.211L360.563,344.789L360.563,330.366L318.873,300.394L360.563,289.127L360.563,244.732L336,207.324L360.563,204.394L360.563,189.972L322.028,185.69L303.324,157.296L305.577,146.254L360.563,164.507L360.563,147.38L311.662,114.93L313.915,103.437L360.563,90.141L360.563,72.563L318.873,78.423L321.127,66.704L321.127,66.704ZM72.113,235.493L10.817,222.648L78.873,182.986L102.761,184.113L122.817,197.859L127.099,164.056L130.704,207.324L72.113,235.493L72.113,235.493ZM176.225,165.859L172.169,153.239L186.817,65.577L207.775,110.197L198.986,155.493L218.592,157.07L176.225,165.859ZM230.31,105.69L248.338,65.577L269.521,118.535L259.38,142.423L278.085,144.451L232.338,154.141L230.31,105.69ZM309.859,228.056L349.746,276.282L296.789,283.493L279.211,276.282L267.944,220.62L233.69,225.352L275.155,206.648L309.859,228.056Z" style="fill:rgb(200,50,0);fill-rule:nonzero;"/>
            <g id="baseline">
                <path d="M455.887,371.38L462.197,371.38L468.282,363.042L461.746,363.042L455.887,371.38Z" style="fill:rgb(200,50,0);fill-rule:nonzero;"/>
                <path d="M484.282,379.493C486.535,379.493 488.789,380.394 491.493,382.197L495.099,377.69C490.592,374.761 486.986,374.085 484.282,374.085C476.62,374.085 473.239,379.268 473.239,384.676C473.239,387.831 474.592,390.535 476.62,392.563L485.859,401.127C487.211,402.479 488.113,404.282 488.113,405.859C488.113,408.338 486.31,410.592 482.93,410.592C480.225,410.592 477.972,409.69 475.493,407.662L472.113,412.394C476.394,415.324 480,416 482.93,416C490.141,416 493.972,410.817 493.972,405.408C493.972,402.479 492.394,399.775 490.366,397.746L481.352,388.958C479.775,387.38 478.873,385.803 478.873,384.451C478.873,381.746 480.901,379.493 484.282,379.493Z" style="fill:rgb(200,50,0);fill-rule:nonzero;"/>
                <path d="M447.775,415.324L468.056,415.324L468.056,410.592L453.183,410.592L453.183,393.915L464.901,393.915L464.901,388.958L453.183,388.958L453.183,379.718L468.056,379.718L468.056,374.761L447.775,374.761L447.775,415.324Z" style="fill:rgb(200,50,0);fill-rule:nonzero;"/>
                <path d="M440.789,387.38C440.789,380.845 436.732,374.761 428.62,374.761L416.451,374.761L416.451,415.324L422.085,415.324L422.085,400L427.042,400L434.028,415.324L440.113,415.324L433.127,399.099C438.085,397.296 440.789,392.113 440.789,387.38ZM428.62,394.817L422.085,394.817L422.085,379.718L428.62,379.718C432.901,379.718 435.155,383.549 435.155,387.38C435.155,390.986 432.901,394.817 428.62,394.817Z" style="fill:rgb(200,50,0);fill-rule:nonzero;"/>
                <path d="M894.423,387.38C894.423,380.845 890.141,374.761 882.028,374.761L870.085,374.761L870.085,415.324L875.493,415.324L875.493,400L880.901,400L887.437,415.324L893.746,415.324L886.535,399.099C891.493,397.296 894.423,392.113 894.423,387.38ZM882.028,394.817L875.493,394.817L875.493,379.718L882.028,379.718C886.31,379.718 888.563,383.549 888.563,387.38C888.563,390.986 886.31,394.817 882.028,394.817Z" style="fill:rgb(200,50,0);fill-rule:nonzero;"/>
                <path d="M912.676,415.324L932.958,415.324L932.958,410.592L918.31,410.592L918.31,393.915L930.028,393.915L930.028,388.958L918.31,388.958L918.31,379.718L932.958,379.718L932.958,374.761L912.676,374.761L912.676,415.324Z" style="fill:rgb(200,50,0);fill-rule:nonzero;"/>
                <path d="M903.211,390.535C900.958,390.535 899.155,392.563 899.155,394.592C899.155,396.845 900.958,398.648 903.211,398.648C905.239,398.648 907.268,396.845 907.268,394.592C907.268,392.563 905.239,390.535 903.211,390.535Z" style="fill:rgb(200,50,0);fill-rule:nonzero;"/>
                <path d="M808.113,415.324L828.394,415.324L828.394,410.592L813.746,410.592L813.746,393.915L825.239,393.915L825.239,388.958L813.746,388.958L813.746,379.718L828.394,379.718L828.394,374.761L808.113,374.761L808.113,415.324Z" style="fill:rgb(200,50,0);fill-rule:nonzero;"/>
                <path d="M949.183,379.493C951.662,379.493 953.915,380.394 956.62,382.197L960,377.69C955.718,374.761 951.887,374.085 949.183,374.085C941.746,374.085 938.366,379.268 938.366,384.676C938.366,387.831 939.493,390.535 941.521,392.563L950.761,401.127C952.338,402.479 953.014,404.282 953.014,405.859C953.014,408.338 951.211,410.592 947.606,410.592C945.352,410.592 943.099,409.69 940.394,407.662L937.014,412.394C941.296,415.324 944.901,416 947.606,416C955.268,416 958.648,410.817 958.648,405.408C958.648,402.479 957.521,400 955.268,397.746L946.028,388.958C944.676,387.606 943.775,385.803 943.775,384.451C943.775,381.746 945.577,379.493 949.183,379.493Z" style="fill:rgb(200,50,0);fill-rule:nonzero;"/>
                <path d="M500.958,415.324L521.239,415.324L521.239,410.592L506.366,410.592L506.366,393.915L518.085,393.915L518.085,388.958L506.366,388.958L506.366,379.718L521.239,379.718L521.239,374.761L500.958,374.761L500.958,415.324Z" style="fill:rgb(200,50,0);fill-rule:nonzero;"/>
                <path d="M714.817,410.592L709.859,410.592C705.352,410.592 702.648,406.986 702.648,402.254L702.648,387.831C702.648,382.873 705.352,379.718 709.859,379.718L720.225,379.718L720.225,374.761L709.859,374.761C702.197,374.761 697.014,379.944 697.014,387.831L697.014,402.254C697.014,410.366 702.197,415.324 709.859,415.324L720.676,415.324L720.676,394.817L714.817,394.817L714.817,410.592Z" style="fill:rgb(200,50,0);fill-rule:nonzero;"/>
                <path d="M729.239,415.324L749.521,415.324L749.521,410.592L734.873,410.592L734.873,393.915L746.366,393.915L746.366,388.958L734.873,388.958L734.873,379.718L749.521,379.718L749.521,374.761L729.239,374.761L729.239,415.324Z" style="fill:rgb(200,50,0);fill-rule:nonzero;"/>
                <path d="M682.592,409.915L671.549,374.761L661.408,374.761L661.408,415.324L667.268,415.324L667.268,380.169L678.085,415.324L688.225,415.324L688.225,374.761L682.592,374.761L682.592,409.915Z" style="fill:rgb(200,50,0);fill-rule:nonzero;"/>
                <path d="M778.141,409.915L767.099,374.761L756.958,374.761L756.958,415.324L762.817,415.324L762.817,380.169L773.859,415.324L783.775,415.324L783.775,374.761L778.141,374.761L778.141,409.915Z" style="fill:rgb(200,50,0);fill-rule:nonzero;"/>
                <path d="M737.352,371.38L743.662,371.38L749.746,363.042L743.211,363.042L737.352,371.38Z" style="fill:rgb(200,50,0);fill-rule:nonzero;"/>
                <rect x="793.239" y="374.761" width="5.408" height="40.563" style="fill:rgb(200,50,0);"/>
                <path d="M533.183,374.761L525.746,415.324L531.38,415.324L533.183,405.408L546.028,405.408L548.056,415.324L553.69,415.324L546.028,374.761L533.183,374.761ZM534.31,400.451L538.141,379.718L541.296,379.718L545.127,400.451L534.31,400.451Z" style="fill:rgb(200,50,0);fill-rule:nonzero;"/>
                <path d="M854.986,402.254C854.986,407.887 852.732,410.592 848.225,410.592C843.718,410.592 841.69,407.887 841.69,402.254L841.69,374.761L835.831,374.761L835.831,402.254C835.831,411.042 840.338,416 848.225,416C856.113,416 860.62,411.042 860.62,402.254L860.62,374.761L854.986,374.761L854.986,402.254Z" style="fill:rgb(200,50,0);fill-rule:nonzero;"/>
                <path d="M614.986,374.761C614.986,374.761 603.718,374.761 603.718,374.761L603.718,415.324L614.986,415.324C622.423,415.324 627.831,410.366 627.831,402.254L627.831,387.831C627.831,379.944 622.423,374.761 614.986,374.761ZM621.972,402.254C621.972,406.986 619.268,410.592 614.986,410.592L609.127,410.592L609.127,379.718L614.986,379.718C619.268,379.718 621.972,382.873 621.972,387.831L621.972,402.254Z" style="fill:rgb(200,50,0);fill-rule:nonzero;"/>
                <rect x="646.535" y="374.761" width="5.408" height="40.563" style="fill:rgb(200,50,0);"/>
                <path d="M578.254,402.028C578.254,407.662 576.225,410.592 571.493,410.592C566.986,410.592 564.732,407.662 564.732,402.028L564.732,374.761L559.099,374.761L559.099,402.028C559.099,410.817 563.606,416 571.493,416C579.38,416 583.887,410.817 583.887,402.028L583.887,374.761L578.254,374.761L578.254,402.028Z" style="fill:rgb(200,50,0);fill-rule:nonzero;"/>
                <path d="M634.366,387.606L640,384.676L640,374.761L634.366,374.761L634.366,387.606Z" style="fill:rgb(200,50,0);fill-rule:nonzero;"/>
            </g>
        </g>
    </g>
</svg>
