<?xml version="1.0" encoding="UTF-8" standalone="no"?>
<!DOCTYPE svg PUBLIC "-//W3C//DTD SVG 1.1//EN" "http://www.w3.org/Graphics/SVG/1.1/DTD/svg11.dtd">
<svg width="100%" height="100%" viewBox="0 0 662 242" version="1.1" xmlns="http://www.w3.org/2000/svg" xmlns:xlink="http://www.w3.org/1999/xlink" xml:space="preserve" xmlns:serif="http://www.serif.com/" style="fill-rule:evenodd;clip-rule:evenodd;stroke-linejoin:round;stroke-miterlimit:2;">
    <rect id="Artboard1" x="0" y="0" width="662" height="241.677" style="fill:none;"/>
        <g id="logo-text">
            <path d="M291.152,111.393C303.918,103.524 310.497,85.721 310.497,68.964C310.497,48.07 300.249,29.172 279.355,29.172L247.416,29.172L247.416,185.411L268.31,185.411L268.31,115.543L272.687,115.543L294.128,185.411L316.352,185.411L291.152,111.393ZM277.492,46.606C285.61,46.606 289.47,57.386 289.47,69.23C289.47,83.337 284.146,98.242 274.431,98.242L268.31,98.242L268.31,46.606L277.492,46.606Z" style="fill:rgb(200,50,0);fill-rule:nonzero;"/>
            <rect x="450.233" y="29.172" width="20.894" height="156.238" style="fill:rgb(239,85,20);"/>
            <path d="M378.502,0.826L352.417,0.826L343.102,18.792L358.539,18.792L378.502,0.826Z" style="fill:rgb(200,50,0);fill-rule:nonzero;"/>
            <path d="M376.505,185.411L376.505,168.11L344.433,168.11L344.433,89.325L371.847,89.325L371.847,71.892L344.433,71.892L344.433,46.606L376.505,46.606L376.505,29.172L323.539,29.172L323.539,160.391L332.056,185.411L376.505,185.411Z" style="fill:rgb(200,50,0);fill-rule:nonzero;"/>
            <path d="M548.98,29.172L548.98,171.171L525.158,29.172L487.762,29.172L487.762,185.411L507.192,185.411L507.192,43.412L531.013,185.411L568.409,185.411L568.409,29.172L548.98,29.172Z" style="fill:rgb(239,85,20);fill-rule:nonzero;"/>
            <path d="M436.126,149.345C436.126,142.425 434.662,135.638 431.335,128.451L412.837,86.664C408.977,77.88 407.513,70.827 407.513,65.104C407.513,52.196 415.764,46.606 429.871,46.606L435.194,46.606L435.194,29.172L429.871,29.172C398.597,29.172 385.688,44.477 385.688,64.838C385.688,72.823 387.817,82.139 391.677,91.055L410.441,132.976C412.837,138.566 414.966,144.821 414.966,150.809C414.966,160.391 409.51,168.11 391.943,168.11L386.886,168.11L386.886,185.411L391.943,185.411C420.955,185.411 436.126,171.171 436.126,149.345Z" style="fill:rgb(200,50,0);fill-rule:nonzero;"/>
        </g>
        <g id="baseline">
            <path d="M297.322,242.103L309.299,242.103L309.299,239.309L300.516,239.309L300.516,229.461L307.436,229.461L307.436,226.533L300.516,226.533L300.516,221.077L309.299,221.077L309.299,218.149L297.322,218.149L297.322,242.103Z" style="fill:rgb(200,50,0);fill-rule:nonzero;"/>
            <path d="M270.705,216.152L274.431,216.152L278.025,211.228L274.165,211.228L270.705,216.152Z" style="fill:rgb(200,50,0);fill-rule:nonzero;"/>
            <path d="M316.352,218.149L311.961,242.103L315.288,242.103L316.352,236.248L323.938,236.248L325.136,242.103L328.463,242.103L323.938,218.149L316.352,218.149ZM317.018,233.32L319.28,221.077L321.143,221.077L323.406,233.32L317.018,233.32Z" style="fill:rgb(200,50,0);fill-rule:nonzero;"/>
            <path d="M287.473,220.943C288.804,220.943 290.135,221.476 291.732,222.54L293.861,219.879C291.2,218.149 289.07,217.749 287.473,217.749C282.949,217.749 280.952,220.81 280.952,224.004C280.952,225.867 281.751,227.464 282.949,228.662L288.405,233.719C289.204,234.518 289.736,235.582 289.736,236.514C289.736,237.978 288.671,239.309 286.675,239.309C285.078,239.309 283.747,238.776 282.283,237.579L280.287,240.373C282.816,242.103 284.945,242.503 286.675,242.503C290.934,242.503 293.196,239.442 293.196,236.248C293.196,234.518 292.264,232.921 291.067,231.723L285.743,226.533C284.812,225.601 284.28,224.67 284.28,223.871C284.28,222.274 285.477,220.943 287.473,220.943Z" style="fill:rgb(200,50,0);fill-rule:nonzero;"/>
            <path d="M265.914,242.103L277.892,242.103L277.892,239.309L269.108,239.309L269.108,229.461L276.028,229.461L276.028,226.533L269.108,226.533L269.108,221.077L277.892,221.077L277.892,218.149L265.914,218.149L265.914,242.103Z" style="fill:rgb(200,50,0);fill-rule:nonzero;"/>
            <path d="M261.789,225.601C261.789,221.742 259.393,218.149 254.602,218.149L247.416,218.149L247.416,242.103L250.743,242.103L250.743,233.054L253.671,233.054L257.796,242.103L261.389,242.103L257.264,232.522C260.192,231.457 261.789,228.396 261.789,225.601ZM254.602,229.993L250.743,229.993L250.743,221.077L254.602,221.077C257.131,221.077 258.462,223.339 258.462,225.601C258.462,227.731 257.131,229.993 254.602,229.993Z" style="fill:rgb(200,50,0);fill-rule:nonzero;"/>
            <path d="M461.012,238.91L454.491,218.149L448.503,218.149L448.503,242.103L451.963,242.103L451.963,221.343L458.484,242.103L464.339,242.103L464.339,218.149L461.012,218.149L461.012,238.91Z" style="fill:rgb(200,50,0);fill-rule:nonzero;"/>
            <path d="M506.393,234.385C506.393,237.712 505.062,239.309 502.401,239.309C499.739,239.309 498.541,237.712 498.541,234.385L498.541,218.149L495.081,218.149L495.081,234.385C495.081,239.575 497.743,242.503 502.401,242.503C507.059,242.503 509.72,239.575 509.72,234.385L509.72,218.149L506.393,218.149L506.393,234.385Z" style="fill:rgb(200,50,0);fill-rule:nonzero;"/>
            <rect x="469.929" y="218.149" width="3.194" height="23.955" style="fill:rgb(200,50,0);"/>
            <path d="M529.683,225.601C529.683,221.742 527.154,218.149 522.363,218.149L515.31,218.149L515.31,242.103L518.504,242.103L518.504,233.054L521.698,233.054L525.557,242.103L529.283,242.103L525.025,232.522C527.953,231.457 529.683,228.396 529.683,225.601ZM522.363,229.993L518.504,229.993L518.504,221.077L522.363,221.077C524.892,221.077 526.223,223.339 526.223,225.601C526.223,227.731 524.892,229.993 522.363,229.993Z" style="fill:rgb(200,50,0);fill-rule:nonzero;"/>
            <path d="M478.712,242.103L490.69,242.103L490.69,239.309L482.039,239.309L482.039,229.461L488.826,229.461L488.826,226.533L482.039,226.533L482.039,221.077L490.69,221.077L490.69,218.149L478.712,218.149L478.712,242.103Z" style="fill:rgb(200,50,0);fill-rule:nonzero;"/>
            <path d="M562.022,220.943C563.485,220.943 564.816,221.476 566.413,222.54L568.409,219.879C565.881,218.149 563.619,217.749 562.022,217.749C557.63,217.749 555.634,220.81 555.634,224.004C555.634,225.867 556.299,227.464 557.497,228.662L562.953,233.719C563.885,234.518 564.284,235.582 564.284,236.514C564.284,237.978 563.219,239.309 561.09,239.309C559.759,239.309 558.428,238.776 556.831,237.579L554.835,240.373C557.364,242.103 559.493,242.503 561.09,242.503C565.615,242.503 567.611,239.442 567.611,236.248C567.611,234.518 566.946,233.054 565.615,231.723L560.158,226.533C559.36,225.734 558.828,224.67 558.828,223.871C558.828,222.274 559.892,220.943 562.022,220.943Z" style="fill:rgb(200,50,0);fill-rule:nonzero;"/>
            <path d="M534.873,227.464C533.542,227.464 532.477,228.662 532.477,229.86C532.477,231.191 533.542,232.255 534.873,232.255C536.071,232.255 537.268,231.191 537.268,229.86C537.268,228.662 536.071,227.464 534.873,227.464Z" style="fill:rgb(200,50,0);fill-rule:nonzero;"/>
            <path d="M540.462,242.103L552.44,242.103L552.44,239.309L543.789,239.309L543.789,229.461L550.71,229.461L550.71,226.533L543.789,226.533L543.789,221.077L552.44,221.077L552.44,218.149L540.462,218.149L540.462,242.103Z" style="fill:rgb(200,50,0);fill-rule:nonzero;"/>
            <rect x="383.292" y="218.149" width="3.194" height="23.955" style="fill:rgb(200,50,0);"/>
            <path d="M376.106,225.734L379.433,224.004L379.433,218.149L376.106,218.149L376.106,225.734Z" style="fill:rgb(200,50,0);fill-rule:nonzero;"/>
            <path d="M342.969,234.252C342.969,237.579 341.771,239.309 338.976,239.309C336.315,239.309 334.984,237.579 334.984,234.252L334.984,218.149L331.657,218.149L331.657,234.252C331.657,239.442 334.318,242.503 338.976,242.503C343.634,242.503 346.296,239.442 346.296,234.252L346.296,218.149L342.969,218.149L342.969,234.252Z" style="fill:rgb(200,50,0);fill-rule:nonzero;"/>
            <path d="M364.661,218.149C364.661,218.149 358.007,218.149 358.007,218.149L358.007,242.103L364.661,242.103C369.053,242.103 372.247,239.176 372.247,234.385L372.247,225.867C372.247,221.21 369.053,218.149 364.661,218.149ZM368.787,234.385C368.787,237.179 367.19,239.309 364.661,239.309L361.201,239.309L361.201,221.077L364.661,221.077C367.19,221.077 368.787,222.94 368.787,225.867L368.787,234.385Z" style="fill:rgb(200,50,0);fill-rule:nonzero;"/>
            <path d="M436.925,216.152L440.651,216.152L444.244,211.228L440.385,211.228L436.925,216.152Z" style="fill:rgb(200,50,0);fill-rule:nonzero;"/>
            <path d="M404.586,238.91L398.065,218.149L392.076,218.149L392.076,242.103L395.536,242.103L395.536,221.343L401.924,242.103L407.913,242.103L407.913,218.149L404.586,218.149L404.586,238.91Z" style="fill:rgb(200,50,0);fill-rule:nonzero;"/>
            <path d="M432.134,242.103L444.111,242.103L444.111,239.309L435.461,239.309L435.461,229.461L442.248,229.461L442.248,226.533L435.461,226.533L435.461,221.077L444.111,221.077L444.111,218.149L432.134,218.149L432.134,242.103Z" style="fill:rgb(200,50,0);fill-rule:nonzero;"/>
            <path d="M423.616,239.309L420.689,239.309C418.027,239.309 416.43,237.179 416.43,234.385L416.43,225.867C416.43,222.94 418.027,221.077 420.689,221.077L426.81,221.077L426.81,218.149L420.689,218.149C416.164,218.149 413.103,221.21 413.103,225.867L413.103,234.385C413.103,239.176 416.164,242.103 420.689,242.103L427.076,242.103L427.076,229.993L423.616,229.993L423.616,239.309Z" style="fill:rgb(200,50,0);fill-rule:nonzero;"/>
        </g>
        <path id="icon" d="M191.122,36.226L195.514,29.172L176.35,29.172L167.567,50.199L156.92,29.172L138.954,29.172L129.239,43.146L118.326,29.172L100.36,29.172L91.311,65.77L94.505,78.28L83.193,59.648L85.987,45.941L92.109,29.172L78.801,29.172L71.481,44.078L55.512,29.172L39.675,29.172L68.687,61.378L76.139,80.542L76.139,85.732L50.987,81.74L36.747,60.846L23.306,29.172L12.925,29.172L19.313,53.659L1.48,50.599L1.48,59.116L23.306,70.428L30.758,86.398L1.48,94.249L1.48,103.964L25.568,103.698L1.48,123.128L1.48,138.433L27.032,146.284L1.48,162.387L1.48,170.905L38.876,156.665L66.025,152.672L48.059,184.346L50.188,173.034L1.48,185.81L1.48,193.129L37.945,190.734L33.686,201.647L1.48,218.681L1.48,227.864L27.298,218.149L17.983,242.103L36.082,242.103L54.846,204.441L82.394,169.041L99.828,153.604L88.649,170.505L89.048,183.547L54.314,242.103L68.421,242.103L89.314,213.358L91.178,242.103L104.486,242.103L105.684,213.757L120.855,242.103L130.969,242.103L111.007,186.076L105.018,149.745L121.92,137.767L132.566,156.798L135.627,181.551L133.764,242.103L145.608,242.103L153.726,188.738L158.384,196.589L161.445,242.103L173.289,242.103L173.289,215.088L203.499,242.103L214.411,242.103L214.411,233.586L177.681,195.658L172.224,180.62L214.411,200.449L214.411,191.932L189.791,174.232L214.411,167.578L214.411,141.36L199.906,119.269L214.411,117.539L214.411,109.022L191.654,106.493L180.609,89.725L181.939,83.204L214.411,93.983L214.411,83.869L185.533,64.705L186.864,57.918L214.411,50.066L214.411,39.686L189.791,43.146L191.122,36.226L191.122,36.226ZM44.067,135.904L7.868,128.318L48.059,104.896L62.166,105.561L74.01,113.679L76.539,93.717L78.668,119.269L44.067,135.904ZM105.55,94.782C105.55,94.782 103.155,87.329 103.155,87.329L111.805,35.56L124.182,61.911L118.992,88.66L130.57,89.592L105.55,94.782ZM137.49,59.249L148.137,35.56L160.646,66.835L154.658,80.941L165.703,82.139L138.688,87.861L137.49,59.249L137.49,59.249ZM184.468,131.512L208.024,159.992L176.749,164.251L166.369,159.992L159.715,127.121L139.486,129.915L163.973,118.87L184.468,131.512L184.468,131.512Z" style="fill:rgb(200,50,0);fill-rule:nonzero;"/>
</svg>
